# AST/ASF file generated using VICON BodyLanguage
# -----------------------------------------------
:version 1.10
:name VICON
:units
  mass 1.0
  length 0.45
  angle deg
:documentation
   .ast/.asf automatically generated from VICON data using
   VICON BodyBuilder and BodyLanguage model FoxedUp or BRILLIANT.MOD
:root
   order TX TY TZ RX RY RZ
   axis XYZ
   position 0 0 0  
   orientation 0 0 0 
:bonedata
  begin
     id 1 
     name lhipjoint
     direction 0.521689 -0.742065 0.420928 
     length 2.47002 
     axis 0 0 0  XYZ
  end
  begin
     id 2 
     name lfemur
     direction 0.34202 -0.939693 0  
     length 7.24654  
     axis 0 0 20  XYZ
    dof rx ry rz
    limits (-160.0 20.0)
           (-70.0 70.0)
           (-60.0 70.0)
  end
  begin
     id 3 
     name ltibia
     direction 0.34202 -0.939693 0   
     length 8.04849   
     axis 0 0 20   XYZ
    dof rx
    limits (-10.0 170.0)
  end
  begin
     id 4 
     name lfoot
     direction 0.0745411 -0.2048 0.975961   
     length 1.72367   
     axis -90 7.62852e-016 20   XYZ
    dof rx rz
    limits (-45.0 90.0)
           (-70.0 20.0)
  end
  begin
     id 5 
     name ltoes
     direction 1.53556e-011 -4.21901e-011 1   
     length 0.87311   
     axis -90 7.62852e-016 20   XYZ
    dof rx
    limits (-90.0 20.0)
  end
  begin
     id 6 
     name rhipjoint
     direction -0.52849 -0.738415 0.418857   
     length 2.48223  
     axis 0 0 0  XYZ 
  end
  begin
     id 7 
     name rfemur
     direction -0.34202 -0.939693 0   
     length 7.15571   
     axis 0 0 -20   XYZ
    dof rx ry rz
    limits (-160.0 20.0)
           (-70.0 70.0)
           (-70.0 60.0)
  end
  begin
     id 8 
     name rtibia
     direction -0.34202 -0.939693 0   
     length 7.81659   
     axis 0 0 -20   XYZ
    dof rx
    limits (-10.0 170.0)
 end
 begin
     id 9 
     name rfoot
     direction -0.0917348 -0.252039 0.963359   
     length 1.84382  
     axis -90 -7.62852e-016 -20   XYZ
    dof rx rz
    limits (-45.0 90.0)
           (-20.0 70.0)
  end
  begin
     id 10 
     name rtoes
     direction -1.53551e-011 -4.21879e-011 1   
     length 0.927771   
     axis -90 -7.62852e-016 -20   XYZ
    dof rx
    limits (-90.0 20.0)
  end
  begin
     id 11 
     name lowerback
     direction 0.00583058 0.999822 0.0179296   
     length 2.1429   
     axis 0 0 0   XYZ
    dof rx ry rz
    limits (-20.0 45.0)
           (-30.0 30.0)
           (-30.0 30.0)
  end
  begin
     id 12 
     name upperback
     direction -0.0137999 0.999752 -0.0175071   
     length 2.14252   
     axis 0 0 0   XYZ
    dof rx ry rz
    limits (-20.0 45.0)
           (-30.0 30.0)
           (-30.0 30.0)
  end
  begin
     id 13 
     name thorax
     direction -0.0158036 0.99955 -0.0254909   
     length 2.1383   
     axis 0 0 0   XYZ
    dof rx ry rz
    limits (-20.0 45.0)
           (-30.0 30.0)
           (-30.0 30.0)
  end
  begin
     id 14 
     name lowerneck
     direction -0.0101179 0.999403 -0.0330262   
     length 1.65808   
     axis 0 0 0   XYZ
    dof rx ry rz
    limits (-20.0 45.0)
           (-30.0 30.0)
           (-30.0 30.0)
  end
  begin
     id 15 
     name upperneck
     direction 0.0497734 0.995978 -0.074501   
     length 1.5897   
     axis 0 0 0   XYZ
    dof rx ry rz
    limits (-20.0 45.0)
           (-30.0 30.0)
           (-30.0 30.0)
  end
  begin
     id 16
     name head
     direction 0.0189524 0.999519 -0.0245438  
     length 1.74024  
     axis 0 0 0   XYZ
    dof rx ry rz
    limits (-20.0 45.0)
           (-30.0 30.0)
           (-30.0 30.0)
  end
  begin
     id 17 
     name lclavicle
     direction 0.945604 0.324422 0.0241537  
     length 3.59089  
     axis 0 0 0   XYZ
    dof ry rz
    limits (-20.0 10.0)
           (0.0 20.0)
  end
  begin
     id 18 
     name lhumerus
     direction 1 -4.48964e-011 -2.63524e-027   
     length 5.2391   
     axis 180 -30 -90   XYZ
    dof rx ry rz
    limits (-60.0 90.0)
           (-90.0 90.0)
           (-90.0 90.0)
  end
  begin
     id 19
     name lradius
     direction 1 -4.48969e-011 3.86978e-028   
     length 3.31467   
     axis 180 -30 -90   XYZ
    dof rx
    limits (-10.0 170.0)
  end
  begin
     id 20
     name lwrist
     direction 1 -4.48963e-011 7.20928e-028   
     length 1.65734   
     axis -5.52449e-016 90 90   XYZ
    dof ry
    limits (-180.0 0.0)
 end
  begin
     id 21 
     name lhand
     direction 1 -4.48964e-011 1.44186e-027   
     length 0.9659   
     axis -9.20027e-016 90 90   XYZ
    dof rx rz
    limits (-90.0 90.0)
           (-45.0 45.0)
  end
  begin
     id 22 
     name lfingers
     direction 1 -4.48965e-011 2.88371e-027   
     length 0.778733   
     axis -1.84005e-015 90 90   XYZ
    dof rx
    limits (0.0 90.0)
  end
  begin
     id 23
     name lthumb
     direction 0.707107 -6.34931e-011 0.707107   
     length 1.11811   
     axis -90 45 2.85299e-015   XYZ
    dof rx rz
    limits (-45.0 45.0)
           (-45.0 45.0)
  end
  begin
     id 24 
     name rclavicle
     direction -0.923762 0.370785 0.0958234   
     length 3.54196  
     axis 0 0 0   XYZ 
    dof ry rz
    limits (-10.0 20.0)
           (-20.0 0.0)
  end
  begin
     id 25 
     name rhumerus
     direction -1 -4.48966e-011 1.18702e-017  
     length 5.30252   
     axis 180 30 90   XYZ
    dof rx ry rz
    limits (-90.0 60.0)
           (-90.0 90.0)
           (-90.0 90.0)
  end
  begin
     id 26 
     name rradius
     direction -1 -4.48966e-011 4.46736e-027   
     length 3.67875   
     axis 180 30 90   XYZ
    dof rx
    limits (-10.0 170.0)
  end
  begin
     id 27 
     name rwrist
     direction -1 -4.48966e-011 7.20928e-028   
     length 1.83937   
     axis -5.52449e-016 -90 -90   XYZ
    dof ry
    limits (-180.0 0.0)
  end
  begin
     id 28
     name rhand
     direction -1 -4.48973e-011 1.44186e-027   
     length 0.594811   
     axis -9.20027e-016 -90 -90   XYZ
    dof rx rz
    limits (-90.0 90.0)
           (-45.0 45.0)
  end
  begin
     id 29
     name rfingers
     direction -1 -4.48963e-011 2.88371e-027   
     length 0.479552   
     axis -1.84005e-015 -90 -90   XYZ
    dof rx
    limits (0.0 90.0)
  end
  begin
     id 30
     name rthumb
     direction -0.707107 -6.34932e-011 0.707107   
     length 0.688544   
     axis -90 -45 -2.85299e-015   XYZ
    dof rx rz
    limits (-45.0 45.0)
           (-45.0 45.0)
  end
:hierarchy
  begin
    root lhipjoint rhipjoint lowerback
    lhipjoint lfemur
    lfemur ltibia
    ltibia lfoot
    lfoot ltoes
    rhipjoint rfemur
    rfemur rtibia
    rtibia rfoot
    rfoot rtoes
    lowerback upperback
    upperback thorax
    thorax lowerneck lclavicle rclavicle
    lowerneck upperneck
    upperneck head
    lclavicle lhumerus
    lhumerus lradius
    lradius lwrist
    lwrist lhand lthumb
    lhand lfingers
    rclavicle rhumerus
    rhumerus rradius
    rradius rwrist
    rwrist rhand rthumb
    rhand rfingers
  end

#!OML:ASF E:\acrobat2\Project_11_07_03\Capture day 1\Session 1\Acrobat.ASF
:FULLY-SPECIFIED
:DEGREES
190
root 10.6112 20.0277 -16.2547 7.12871 -2.26227 -2.75368
lowerback -4.03383 0.658873 3.79907
upperback 0.345296 0.727068 -1.30174
thorax 2.68427 0.42705 -3.43107
lowerneck -0.131952 -1.31894 0.0174132
upperneck 0.841504 -1.76643 0.978233
head 0.283529 -0.879792 0.286444
rclavicle 9.93923e-017 -2.38542e-015
rhumerus -38.0989 -2.30803 -85.2623
rradius 27.8071
rwrist 6.34263
rhand -1.18834 -48.3104
rfingers 7.12502
rthumb 24.4517 -76.7698
lclavicle 9.93923e-017 -2.38542e-015
lhumerus -30.3641 12.722 74.1428
lradius 35.1762
lwrist 169.601
lhand -25.9439 14.5679
lfingers 7.12502
lthumb 0.599967 44.5468
rfemur -15.0869 9.90678 19.7452
rtibia 29.8425
rfoot -41.3775 -9.76348
rtoes 3.00155
lfemur -29.1535 0.0130975 -13.6921
ltibia 53.1314
lfoot -30.0205 -18.977
ltoes 11.8918
191
root 10.6261 20.019 -16.2473 7.38189 -2.35222 -2.95983
lowerback -3.90742 0.772034 3.91509
upperback 0.286399 0.875653 -1.2169
thorax 2.56597 0.498662 -3.40036
lowerneck -0.0608761 -1.25917 0.0233895
upperneck 0.524453 -1.6832 0.865117
head 0.174771 -0.839764 0.253088
rclavicle -3.8763e-015 7.15625e-015
rhumerus -38.0317 -2.36795 -85.1791
rradius 27.8981
rwrist 6.404
rhand -1.13308 -48.2051
rfingers 7.12502
rthumb 24.5047 -76.6573
lclavicle -3.8763e-015 7.15625e-015
lhumerus -30.4607 12.8868 74.1463
lradius 35.2928
lwrist 169.72
lhand -25.7264 14.8627
lfingers 7.12502
lthumb 0.809973 44.8409
rfemur -15.2867 10.2141 19.8592
rtibia 29.7828
rfoot -41.6725 -9.60626
rtoes 3.83662
lfemur -29.5349 0.152429 -13.5331
ltibia 53.3829
lfoot -30.1079 -19.0437
ltoes 11.9462
192
root 10.643 20.0128 -16.2413 7.60655 -2.22289 -3.11784
lowerback -3.77033 0.819559 4.01943
upperback 0.268231 0.938491 -1.16278
thorax 2.47659 0.528811 -3.40071
lowerneck -0.01534 -1.21628 0.118097
upperneck 0.109629 -1.62264 0.717856
head 0.0404629 -0.810989 0.195372
rclavicle 1.14798e-014 -7.95139e-016
rhumerus -38.0289 -2.39839 -85.132
rradius 28.1861
rwrist 6.30944
rhand -0.992491 -48.2193
rfingers 7.12502
rthumb 24.6394 -76.6533
lclavicle 1.14798e-014 -7.95139e-016
lhumerus -30.5071 12.7624 74.1644
lradius 35.4302
lwrist 169.977
lhand -25.5176 14.8652
lfingers 7.12502
lthumb 1.0117 44.8426
rfemur -15.4203 10.3571 19.946
rtibia 29.7199
rfoot -41.9295 -9.63402
rtoes 4.62812
lfemur -29.9041 0.109882 -13.4198
ltibia 53.5862
lfoot -30.1814 -19.1336
ltoes 11.9144
193
root 10.6607 20.0092 -16.234 7.79755 -1.9589 -3.25823
lowerback -3.66008 0.829269 4.18617
upperback 0.286757 0.94797 -1.15051
thorax 2.43736 0.535143 -3.48258
lowerneck 0.0339425 -1.20303 0.073773
upperneck -0.0968491 -1.60345 0.780346
head -0.0285299 -0.802144 0.222521
rclavicle 1.43125e-014 9.93923e-015
rhumerus -37.9063 -2.34936 -85.1804
rradius 28.4082
rwrist 5.98521
rhand -1.00251 -48.4834
rfingers 7.12502
rthumb 24.6298 -76.9186
lclavicle 1.43125e-014 9.93923e-015
lhumerus -30.5412 12.4174 74.179
lradius 35.5899
lwrist 170.393
lhand -25.4669 14.5613
lfingers 7.12502
lthumb 1.06064 44.5384
rfemur -15.5284 10.4551 20.0302
rtibia 29.6853
rfoot -42.2031 -9.82639
rtoes 5.01938
lfemur -30.218 -0.0312423 -13.3096
ltibia 53.7403
lfoot -30.2452 -19.235
ltoes 11.7688
194
root 10.681 20.0074 -16.2244 7.97315 -1.79923 -3.35786
lowerback -3.5562 0.864505 4.34204
upperback 0.350996 0.992295 -1.17404
thorax 2.45276 0.561088 -3.59308
lowerneck 0.100142 -1.24263 0.100675
upperneck -0.449808 -1.65371 0.758565
head -0.145325 -0.828524 0.213832
rclavicle 4.62174e-015 -4.77083e-015
rhumerus -37.55 -2.45295 -85.2085
rradius 28.3782
rwrist 5.82392
rhand -1.00328 -48.6266
rfingers 7.12502
rthumb 24.6291 -77.0619
lclavicle 4.62174e-015 -4.77083e-015
lhumerus -30.4669 12.2942 74.1667
lradius 35.7003
lwrist 170.653
lhand -25.5516 14.4903
lfingers 7.12502
lthumb 0.978866 44.4678
rfemur -15.6744 10.4058 20.0405
rtibia 29.6904
rfoot -42.3746 -9.66641
rtoes 5.71368
lfemur -30.438 -0.110913 -13.2659
ltibia 53.8413
lfoot -30.4219 -19.2187
ltoes 11.3639
195
root 10.703 20.0018 -16.2111 8.10852 -1.6907 -3.40886
lowerback -3.37906 0.916659 4.4006
upperback 0.408176 1.06666 -1.18512
thorax 2.4207 0.599454 -3.63503
lowerneck 0.12486 -1.29142 0.14969
upperneck -0.925307 -1.71633 0.646622
head -0.293709 -0.86112 0.175117
rclavicle -2.08724e-015 3.57812e-015
rhumerus -37.3845 -2.67782 -85.1187
rradius 28.5471
rwrist 5.76025
rhand -0.869162 -48.562
rfingers 7.12502
rthumb 24.7576 -76.9798
lclavicle -2.08724e-015 3.57812e-015
lhumerus -30.3996 12.3494 74.1473
lradius 35.6957
lwrist 170.703
lhand -25.6289 14.6263
lfingers 7.12502
lthumb 0.904176 44.6042
rfemur -15.7797 10.111 20.0038
rtibia 29.7148
rfoot -42.4281 -9.33886
rtoes 6.02298
lfemur -30.5496 -0.159157 -13.2977
ltibia 53.8996
lfoot -30.7821 -19.1555
ltoes 10.4655
196
root 10.7229 19.9942 -16.1975 8.25877 -1.52312 -3.52366
lowerback -3.22892 0.967318 4.41809
upperback 0.453478 1.1382 -1.12693
thorax 2.38909 0.635113 -3.58212
lowerneck 0.101651 -1.36061 0.0959497
upperneck -1.19032 -1.8077 0.629294
head -0.3696 -0.907218 0.180174
rclavicle -3.67752e-015 -3.57812e-015
rhumerus -37.3435 -2.8297 -84.957
rradius 28.8841
rwrist 5.56486
rhand -0.838213 -48.417
rfingers 7.12502
rthumb 24.7873 -76.8307
lclavicle -3.67752e-015 -3.57812e-015
lhumerus -30.3128 12.2641 74.2303
lradius 35.6066
lwrist 170.86
lhand -25.5299 14.6663
lfingers 7.12502
lthumb 0.999782 44.6437
rfemur -15.8734 9.94882 20.0693
rtibia 29.7393
rfoot -42.5058 -9.45217
rtoes 5.3669
lfemur -30.6766 -0.276374 -13.2361
ltibia 53.9292
lfoot -31.0291 -19.268
ltoes 10.4311
197
root 10.7412 19.9902 -16.1864 8.41118 -1.37842 -3.6329
lowerback -3.05587 1.02679 4.39968
upperback 0.482089 1.2247 -1.0874
thorax 2.32826 0.676905 -3.52828
lowerneck 0.170435 -1.43285 0.081796
upperneck -1.37843 -1.90277 0.64802
head -0.437406 -0.955379 0.190187
rclavicle 6.55989e-015 -4.77083e-015
rhumerus -37.2487 -2.96875 -84.8522
rradius 29.0868
rwrist 5.32612
rhand -1.04036 -48.1265
rfingers 7.12502
rthumb 24.5935 -76.5666
lclavicle 6.55989e-015 -4.77083e-015
lhumerus -30.351 12.0675 74.2793
lradius 35.6806
lwrist 171.082
lhand -25.4118 14.6089
lfingers 7.12502
lthumb 1.11387 44.5858
rfemur -15.9739 10.0606 20.1266
rtibia 29.7675
rfoot -42.7113 -9.64674
rtoes 5.18427
lfemur -30.8205 -0.443351 -13.161
ltibia 53.9324
lfoot -31.0752 -19.4229
ltoes 11.5345
198
root 10.7589 19.9869 -16.175 8.57331 -1.23198 -3.79435
lowerback -2.89491 1.07029 4.46618
upperback 0.498047 1.28684 -1.06663
thorax 2.2612 0.707412 -3.54335
lowerneck 0.409072 -1.43762 0.0738368
upperneck -1.79588 -1.90579 0.684696
head -0.603749 -0.958534 0.207338
rclavicle 2.08724e-015 6.75868e-015
rhumerus -37.1341 -3.11124 -84.8206
rradius 29.2272
rwrist 5.0774
rhand -1.14748 -48.0497
rfingers 7.12502
rthumb 24.4908 -76.5038
lclavicle 2.08724e-015 6.75868e-015
lhumerus -30.5248 12.1268 74.1445
lradius 35.767
lwrist 171.051
lhand -25.4596 14.82
lfingers 7.12502
lthumb 1.0677 44.7971
rfemur -16.0876 10.2733 20.2341
rtibia 29.7968
rfoot -43.0379 -9.62855
rtoes 5.80451
lfemur -30.9883 -0.547157 -13.0211
ltibia 53.9093
lfoot -30.9787 -19.606
ltoes 12.5142
199
root 10.7789 19.98 -16.1615 8.72734 -1.10043 -4.10894
lowerback -2.72449 1.12347 4.74931
upperback 0.566299 1.3538 -1.03042
thorax 2.24847 0.745369 -3.66421
lowerneck 0.441454 -1.48805 0.177638
upperneck -2.24139 -1.97185 0.568162
head -0.747912 -0.992528 0.158696
rclavicle -1.43125e-014 -1.59028e-015
rhumerus -36.9398 -3.29419 -84.7871
rradius 29.4299
rwrist 4.87283
rhand -1.0381 -48.2784
rfingers 7.12502
rthumb 24.5957 -76.7182
lclavicle -1.43125e-014 -1.59028e-015
lhumerus -30.4717 12.3087 74.0034
lradius 35.7031
lwrist 170.876
lhand -25.5428 15.0993
lfingers 7.12502
lthumb 0.987345 45.0768
rfemur -16.2149 10.279 20.5036
rtibia 29.8476
rfoot -43.1984 -9.48466
rtoes 6.29635
lfemur -31.0925 -0.569884 -12.7231
ltibia 53.8394
lfoot -30.9356 -19.8658
ltoes 12.9235
200
root 10.8019 19.9779 -16.1487 8.86772 -0.962193 -4.36683
lowerback -2.54042 1.16286 4.94091
upperback 0.679418 1.40567 -0.971073
thorax 2.27048 0.776286 -3.7102
lowerneck 0.381905 -1.58306 0.273346
upperneck -2.66212 -2.09883 0.446591
head -0.869972 -1.05661 0.109283
rclavicle -1.2921e-014 -7.95139e-016
rhumerus -36.7341 -3.40814 -84.6883
rradius 29.7538
rwrist 4.65449
rhand -1.1357 -48.1657
rfingers 7.12502
rthumb 24.5021 -76.6183
lclavicle -1.2921e-014 -7.95139e-016
lhumerus -30.2522 12.406 73.9772
lradius 35.5454
lwrist 170.778
lhand -25.5249 15.0988
lfingers 7.12502
lthumb 1.00463 45.0761
rfemur -16.365 9.85839 20.7109
rtibia 29.9561
rfoot -43.0625 -9.38596
rtoes 5.86347
lfemur -31.1263 -0.708975 -12.4951
ltibia 53.7068
lfoot -31.2664 -19.8134
ltoes 12.2215
201
root 10.8239 19.9811 -16.1342 9.08317 -0.743158 -4.426
lowerback -2.50794 1.13479 4.83126
upperback 0.750319 1.37076 -0.905509
thorax 2.31736 0.75941 -3.58204
lowerneck 0.424048 -1.59417 -0.0303888
upperneck -2.80041 -2.10806 0.803346
head -0.913119 -1.06249 0.269051
rclavicle 1.42131e-014 -7.95139e-016
rhumerus -36.5477 -3.30821 -84.6029
rradius 29.9898
rwrist 4.41769
rhand -1.40583 -47.7119
rfingers 7.12502
rthumb 24.2432 -76.1993
lclavicle 1.42131e-014 -7.95139e-016
lhumerus -30.1986 12.5934 73.9383
lradius 35.39
lwrist 170.606
lhand -25.4539 15.1841
lfingers 7.12502
lthumb 1.0732 45.1612
rfemur -16.6243 9.25663 20.7047
rtibia 30.1149
rfoot -42.7836 -9.5816
rtoes 4.50446
lfemur -31.2286 -0.941518 -12.4789
ltibia 53.5224
lfoot -31.4699 -19.8517
ltoes 12.0992
202
root 10.8438 19.9822 -16.1145 9.28629 -0.608074 -4.39309
lowerback -2.41502 1.14499 4.63653
upperback 0.735364 1.39642 -0.938388
thorax 2.24788 0.767773 -3.50699
lowerneck 0.531218 -1.62549 -0.293315
upperneck -2.78578 -2.14189 1.26379
head -0.919508 -1.08213 0.454278
rclavicle -3.44891e-014 -6.36111e-015
rhumerus -36.4739 -3.21142 -84.6497
rradius 30.1285
rwrist 4.1331
rhand -1.53009 -47.6607
rfingers 7.12502
rthumb 24.124 -76.164
lclavicle -3.44891e-014 -6.36111e-015
lhumerus -30.368 12.6082 73.8108
lradius 35.4221
lwrist 170.414
lhand -25.4633 15.0148
lfingers 7.12502
lthumb 1.06406 44.9919
rfemur -16.8954 8.85633 20.5968
rtibia 30.2968
rfoot -42.5323 -9.85166
rtoes 3.11931
lfemur -31.2641 -1.00928 -12.5746
ltibia 53.304
lfoot -31.3354 -20.2685
ltoes 13.1405
203
root 10.8637 19.9848 -16.0925 9.38217 -0.564309 -4.39832
lowerback -2.18837 1.22248 4.50996
upperback 0.76327 1.51555 -1.01161
thorax 2.15913 0.824582 -3.51001
lowerneck 0.695654 -1.7114 -0.25154
upperneck -3.13929 -2.24864 1.40652
head -1.05562 -1.1394 0.497322
rclavicle -3.20043e-014 -4.77083e-015
rhumerus -36.4849 -3.22696 -84.688
rradius 30.4913
rwrist 3.74167
rhand -1.4809 -47.9118
rfingers 7.12502
rthumb 24.1712 -76.4088
lclavicle -3.20043e-014 -4.77083e-015
lhumerus -30.3613 12.4743 73.7143
lradius 35.3443
lwrist 170.304
lhand -25.6086 14.5355
lfingers 7.12502
lthumb 0.92376 44.5132
rfemur -17.0453 8.55506 20.54
rtibia 30.4843
rfoot -42.3535 -9.83828
rtoes 2.31344
lfemur -31.1806 -1.03216 -12.6302
ltibia 53.0871
lfoot -31.3064 -20.4703
ltoes 13.56
